<svg width="75" height="65" viewBox="0 0 75 65" fill="none" xmlns="http://www.w3.org/2000/svg">
<path opacity="0.5" d="M46.595 3.07106C52.8946 -3.22859 63.666 1.23309 63.666 10.1421L63.666 29C63.666 34.5228 59.1889 39 53.666 39L34.8081 39C25.8991 39 21.4374 28.2286 27.7371 21.9289L46.595 3.07106Z" fill="#15803D"/>
<g clip-path="url(#clip0_13_8680)">
<path d="M53.3333 54.3334L10.6666 41.0001M53.3333 54.3334H10.6666V41.0001L53.3333 54.3334ZM53.3333 54.3334V33.0001C53.3333 21.218 43.7821 11.6667 32 11.6667C29.8818 11.6667 27.836 11.9754 25.9047 12.5502C17.0926 15.1728 10.6666 23.336 10.6666 33.0001V41.0001L53.3333 54.3334Z" stroke="#78350F" stroke-width="1.5" stroke-linecap="round" stroke-linejoin="round"/>
<path d="M42.6666 25V27.6667" stroke="#78350F" stroke-width="1.5" stroke-linecap="round"/>
<path d="M32 22.3333V24.9999" stroke="#78350F" stroke-width="1.5" stroke-linecap="round"/>
<path d="M21.3334 19.6667V22.3334" stroke="#78350F" stroke-width="1.5" stroke-linecap="round"/>
</g>
<defs>
<clipPath id="clip0_13_8680">
<rect width="75" height="64" fill="white" transform="translate(0 1)"/>
</clipPath>
</defs>
</svg>
