<svg width="91" height="92" viewBox="0 0 91 92" fill="none" xmlns="http://www.w3.org/2000/svg">
<path opacity="0.5" d="M37.0711 17.4973C30.7714 11.1977 35.2331 0.42627 44.1421 0.42627L80.7107 0.42627C89.6197 0.42627 94.0814 11.1977 87.7817 17.4973L69.4975 35.7816C65.5922 39.6868 59.2606 39.6869 55.3553 35.7816L37.0711 17.4973Z" fill="#0369A1"/>
<g clip-path="url(#clip0_13_8575)">
<path d="M23.9875 10.6667H52.1685C52.1685 10.6667 49.8202 46.019 38.0781 46.019C32.342 46.019 28.8476 37.5827 26.7736 28.9523C24.6019 19.9159 23.9875 10.6667 23.9875 10.6667Z" stroke="#78350F" stroke-width="1.5" stroke-linecap="round" stroke-linejoin="round"/>
<path d="M52.1686 10.6667C52.1686 10.6667 54.6251 8.04623 56.6667 7.99999C60.6667 7.90943 61.4062 10.6667 61.4062 10.6667C62.1891 12.2921 62.8152 16.5181 59.0579 20.4191C55.3003 24.32 51.0942 27.7333 49.3824 28.9523" stroke="#78350F" stroke-width="1.5" stroke-linecap="round" stroke-linejoin="round"/>
<path d="M23.9874 10.6667C23.9874 10.6667 21.4279 8.01637 19.3332 8.00002C15.3332 7.9688 14.5937 10.6667 14.5937 10.6667C13.8109 12.2921 13.1846 16.5181 16.9421 20.4191C20.6996 24.32 25.062 27.7333 26.7734 28.9525" stroke="#78350F" stroke-width="1.5" stroke-linecap="round" stroke-linejoin="round"/>
<path d="M28.6843 53.3334C28.6843 48.4572 38.0779 46.019 38.0779 46.019C38.0779 46.019 47.4717 48.4572 47.4717 53.3334H28.6843Z" stroke="#78350F" stroke-width="1.5" stroke-linecap="round" stroke-linejoin="round"/>
</g>
<defs>
<clipPath id="clip0_13_8575">
<rect width="76" height="69" fill="white"/>
</clipPath>
</defs>
</svg>
